<svg xmlns="http://www.w3.org/2000/svg" width="14" height="16" viewBox="0 0 14 16" role="presentation" focusable="false">
  <path fill-rule="nonzero" d="M7.209 10.481l.844-.856c-.838-.064-1.384-.318-1.796-.73C5.146 7.784 5.152 6.209 6.25 5.11L8.32 3.042c1.11-1.104 2.672-1.11 3.783 0 1.11 1.11 1.098 2.679 0 3.777l-1.244 1.244c.178.406.216.876.152 1.289l1.866-1.86c1.518-1.524 1.53-3.676-.006-5.218C11.33.73 9.171.744 7.647 2.268l-2.165 2.17C3.96 5.962 3.946 8.12 5.49 9.656c.4.4.908.686 1.72.825zm-.286 2.99l2.171-2.177c1.524-1.523 1.536-3.682-.006-5.218-.4-.4-.908-.685-1.72-.825l-.845.857c.838.07 1.384.317 1.797.73 1.11 1.11 1.104 2.685.006 3.783l-2.075 2.07c-1.105 1.104-2.667 1.11-3.777.006-1.111-1.117-1.105-2.679 0-3.783l1.244-1.245a2.315 2.315 0 01-.153-1.288L1.7 8.24c-1.517 1.523-1.53 3.681.007 5.217 1.542 1.543 3.7 1.53 5.217.013z"/>
</svg>
